<svg preserveAspectRatio="xMidYMid meet" overflow="visible" style="display: block;" width="260" height="262" viewBox="0 0 260 262" fill="none" xmlns="http://www.w3.org/2000/svg">
<g id="Kenzie/StampShape">
<g id="Paper silhouette" filter="url(#filter0_dd_0_43)">
<path d="M203.354 232.503C205.182 230.421 207.863 229.107 210.851 229.107V219.382C205.343 219.382 200.879 214.917 200.879 209.41V207.665C200.879 202.157 205.343 197.692 210.851 197.692V187.967C205.343 187.967 200.879 183.502 200.879 177.995V176.25C200.879 170.742 205.343 166.278 210.851 166.278V156.552C205.343 156.552 200.879 152.087 200.879 146.58V144.835C200.879 139.327 205.343 134.863 210.851 134.863V125.137C205.343 125.137 200.879 120.673 200.879 115.165V113.42C200.879 107.912 205.343 103.448 210.851 103.448V93.7223C205.343 93.7223 200.879 89.2576 200.879 83.7502V82.0049C200.879 76.4975 205.343 72.0328 210.851 72.0328V62.3075C205.343 62.3075 200.879 57.8428 200.879 52.3353V50.5901C200.879 45.0826 205.343 40.618 210.851 40.618V30.8926C207.863 30.8926 205.182 29.5785 203.354 27.4966C201.272 25.6689 199.958 22.988 199.958 20H189.367C189.367 25.5074 184.903 29.9721 179.395 29.9721H177.599C172.091 29.9721 167.627 25.5074 167.627 20H157.036C157.036 25.5074 152.571 29.9721 147.064 29.9721H145.268C139.76 29.9721 135.295 25.5074 135.295 20H124.704C124.704 25.5074 120.24 29.9721 114.732 29.9721H112.936C107.429 29.9721 102.964 25.5074 102.964 20H92.3732C92.3732 25.5074 87.9085 29.9721 82.4011 29.9721H80.6049C75.0975 29.9721 70.6328 25.5074 70.6328 20H60.0419C60.0419 22.988 58.7278 25.6689 56.6459 27.4966C54.8182 29.5785 52.1373 30.8926 49.1492 30.8926V40.618C54.6567 40.618 59.1213 45.0826 59.1213 50.5901V52.3353C59.1213 57.8428 54.6567 62.3075 49.1492 62.3075V72.0328C54.6567 72.0328 59.1213 76.4975 59.1213 82.0049V83.7502C59.1213 89.2576 54.6567 93.7223 49.1492 93.7223V103.448C54.6567 103.448 59.1213 107.912 59.1213 113.42V115.165C59.1213 120.673 54.6567 125.137 49.1492 125.137V134.863C54.6567 134.863 59.1213 139.327 59.1213 144.835V146.58C59.1213 152.087 54.6567 156.552 49.1492 156.552V166.278C54.6567 166.278 59.1213 170.742 59.1213 176.25V177.995C59.1213 183.502 54.6567 187.967 49.1492 187.967V197.692C54.6567 197.692 59.1213 202.157 59.1213 207.665V209.41C59.1213 214.917 54.6567 219.382 49.1492 219.382V229.107C52.1373 229.107 54.8182 230.421 56.6459 232.503C58.7278 234.331 60.0419 237.012 60.0419 240H70.6328C70.6328 234.493 75.0975 230.028 80.6049 230.028H82.4011C87.9085 230.028 92.3732 234.493 92.3732 240H102.964C102.964 234.493 107.429 230.028 112.936 230.028H114.732C120.24 230.028 124.705 234.493 124.705 240H135.296C135.296 234.493 139.76 230.028 145.268 230.028H147.064C152.571 230.028 157.036 234.493 157.036 240H167.627C167.627 234.493 172.091 230.028 177.599 230.028H179.395C184.903 230.028 189.367 234.493 189.367 240H199.958C199.958 237.012 201.272 234.331 203.354 232.503Z" fill="white"/>
</g>
<rect id="Editable Canvas" x="71.7874" y="46.4" width="116.425" height="167.2" fill="#D1D1D1"/>
</g>
<defs>
<filter id="filter0_dd_0_43" x="33.1492" y="10" width="193.702" height="252" filterUnits="userSpaceOnUse" color-interpolation-filters="sRGB">
<feFlood flood-opacity="0" result="BackgroundImageFix"/>
<feColorMatrix in="SourceAlpha" type="matrix" values="0 0 0 0 0 0 0 0 0 0 0 0 0 0 0 0 0 0 127 0" result="hardAlpha"/>
<feMorphology radius="1" operator="dilate" in="SourceAlpha" result="effect1_dropShadow_0_43"/>
<feOffset/>
<feComposite in2="hardAlpha" operator="out"/>
<feColorMatrix type="matrix" values="0 0 0 0 0.0392157 0 0 0 0 0.0352941 0 0 0 0 0.0431373 0 0 0 0.05 0"/>
<feBlend mode="normal" in2="BackgroundImageFix" result="effect1_dropShadow_0_43"/>
<feColorMatrix in="SourceAlpha" type="matrix" values="0 0 0 0 0 0 0 0 0 0 0 0 0 0 0 0 0 0 127 0" result="hardAlpha"/>
<feOffset dy="6"/>
<feGaussianBlur stdDeviation="8"/>
<feComposite in2="hardAlpha" operator="out"/>
<feColorMatrix type="matrix" values="0 0 0 0 0.0392157 0 0 0 0 0.0352941 0 0 0 0 0.0431373 0 0 0 0.08 0"/>
<feBlend mode="normal" in2="effect1_dropShadow_0_43" result="effect2_dropShadow_0_43"/>
<feBlend mode="normal" in="SourceGraphic" in2="effect2_dropShadow_0_43" result="shape"/>
</filter>
</defs>
</svg>
